<svg width="24" height="24" viewBox="0 0 24 24" fill="none" xmlns="http://www.w3.org/2000/svg">
<circle cx="12" cy="12" r="11" fill="#10B3E8" fillOpacity="0.3" stroke="#10B3E8" strokeWidth="2"/>
<path fillRule="evenodd" clipRule="evenodd" d="M15.6452 6.05812C15.6444 6.09013 15.4276 6.35835 15.1634 6.65432C14.8992 6.95021 14.6209 7.33499 14.5449 7.50936C14.469 7.68373 14.2785 7.92274 14.1215 8.04054C13.9646 8.15833 13.698 8.455 13.5291 8.69982C13.3602 8.94463 13.1651 9.19139 13.0955 9.24819C12.8781 9.42574 12.9429 9.63956 13.253 9.76705C13.6031 9.91096 13.8694 9.86617 14.5649 9.54633C15.1853 9.26106 15.1793 9.25835 15.5695 9.99117C15.7758 10.3787 15.7963 10.4603 15.6924 10.4812C15.4943 10.521 15.5025 10.8812 15.7085 11.1924C15.93 11.5268 15.772 12.0545 15.2949 12.5743C14.8951 13.0097 14.4577 13.1606 13.7377 13.1111C13.0132 13.0614 12.3912 12.8278 11.8194 12.3909C11.5635 12.1953 11.2481 12.0274 11.0868 12.0009C10.931 11.9753 10.2366 11.8142 9.54363 11.643C7.36257 11.1038 6.59801 10.9405 6.4743 10.9873C6.32105 11.0452 6.32058 11.2256 6.47327 11.3759C6.57942 11.4803 6.56029 11.4956 6.29609 11.517L6 11.5411L6.00016 12.011C6.00031 12.4434 6.05166 12.5824 6.64376 13.7547C7.94105 16.3231 8.76616 17.2037 10.4276 17.7931C10.7855 17.9201 11.1339 17.9624 12.0636 17.9914C13.3063 18.0303 13.9163 17.9414 14.5287 17.6322C14.7849 17.5029 14.8092 17.5033 15.093 17.6414C15.6853 17.9299 16.5935 17.9562 16.5904 17.6848C16.5898 17.6305 16.4569 17.4175 16.2951 17.2116L16.0009 16.8373L16.3579 16.4583C17.271 15.489 17.9281 13.9917 17.9913 12.7363C18.0688 11.2001 17.6291 10.0012 16.5903 8.91596L15.9876 8.28621L16.1302 7.74372C16.4011 6.71392 16.2819 6 15.8389 6C15.7331 6 15.6459 6.02612 15.6452 6.05812Z" fill="#10B3E8"/>
</svg>
